<svg width="35" height="35" viewBox="0 0 35 35" fill="none" xmlns="http://www.w3.org/2000/svg">
<g clip-path="url(#clip0)">
<path fill-rule="evenodd" clip-rule="evenodd" d="M21.875 27.3438C21.875 27.6338 21.7598 27.912 21.5546 28.1171C21.3495 28.3223 21.0713 28.4375 20.7812 28.4375H3.28125C2.99117 28.4375 2.71297 28.3223 2.50785 28.1171C2.30273 27.912 2.1875 27.6338 2.1875 27.3438V7.65625C2.1875 7.36617 2.30273 7.08797 2.50785 6.88285C2.71297 6.67773 2.99117 6.5625 3.28125 6.5625H20.7812C21.0713 6.5625 21.3495 6.67773 21.5546 6.88285C21.7598 7.08797 21.875 7.36617 21.875 7.65625V12.0312C21.875 12.3213 21.9902 12.5995 22.1954 12.8046C22.4005 13.0098 22.6787 13.125 22.9688 13.125C23.2588 13.125 23.537 13.0098 23.7421 12.8046C23.9473 12.5995 24.0625 12.3213 24.0625 12.0312V7.65625C24.0625 6.78601 23.7168 5.95141 23.1014 5.33606C22.4861 4.7207 21.6515 4.375 20.7812 4.375H3.28125C2.41101 4.375 1.57641 4.7207 0.961056 5.33606C0.345702 5.95141 0 6.78601 0 7.65625L0 27.3438C0 28.214 0.345702 29.0486 0.961056 29.6639C1.57641 30.2793 2.41101 30.625 3.28125 30.625H20.7812C21.6515 30.625 22.4861 30.2793 23.1014 29.6639C23.7168 29.0486 24.0625 28.214 24.0625 27.3438V22.9688C24.0625 22.6787 23.9473 22.4005 23.7421 22.1954C23.537 21.9902 23.2588 21.875 22.9688 21.875C22.6787 21.875 22.4005 21.9902 22.1954 22.1954C21.9902 22.4005 21.875 22.6787 21.875 22.9688V27.3438Z" fill="white"/>
<path fill-rule="evenodd" clip-rule="evenodd" d="M34.6806 18.2744C34.7825 18.1728 34.8633 18.0521 34.9184 17.9192C34.9736 17.7863 35.002 17.6439 35.002 17.5C35.002 17.3561 34.9736 17.2137 34.9184 17.0808C34.8633 16.9479 34.7825 16.8272 34.6806 16.7256L28.1181 10.1631C27.9127 9.95775 27.6342 9.84237 27.3438 9.84237C27.0533 9.84237 26.7748 9.95775 26.5694 10.1631C26.364 10.3685 26.2486 10.6471 26.2486 10.9375C26.2486 11.2279 26.364 11.5065 26.5694 11.7119L31.2659 16.4063H12.0312C11.7412 16.4063 11.463 16.5215 11.2579 16.7266C11.0527 16.9317 10.9375 17.2099 10.9375 17.5C10.9375 17.7901 11.0527 18.0683 11.2579 18.2734C11.463 18.4785 11.7412 18.5938 12.0312 18.5938H31.2659L26.5694 23.2881C26.364 23.4935 26.2486 23.7721 26.2486 24.0625C26.2486 24.3529 26.364 24.6315 26.5694 24.8369C26.7748 25.0423 27.0533 25.1576 27.3438 25.1576C27.6342 25.1576 27.9127 25.0423 28.1181 24.8369L34.6806 18.2744V18.2744Z" fill="white"/>
</g>
<defs>
<clipPath id="clip0">
<rect width="35" height="35" fill="white"/>
</clipPath>
</defs>
</svg>
